# xmcd
# Copyright (C) 1995-1998 Ti Kan
#
# Track frame offsets:
#       150
#       14368
#       29835
#
# Disc length: 574 seconds
#
# Revision: 0
# Processed by: cddbd v1.5.2PL0 Copyright (c) Steve Scherf et al.
# Submitted via: CD-Import v1.0
#
DISCID=20023c03
DTITLE=Royal Hangmen - Mary Jane
DYEAR=2009
DGENRE=
TTITLE0=Mary Jane
TTITLE1=You Better Tell That Girl
TTITLE2=Almost Grown
EXTD=
EXTT0=
EXTT1=
EXTT2=
PLAYORDER=
